<?xml version="1.0" encoding="UTF-8"?>
<svg id="Camada_3" data-name="Camada 3" xmlns="http://www.w3.org/2000/svg" viewBox="0 0 764.89 218.56">
  <defs>
    <style>
      .cls-1 {
        fill: #005aa8;
      }

      .cls-2 {
        fill: #7db613;
      }

      .cls-3 {
        fill: #838286;
      }

      .cls-4 {
        fill: #828185;
      }

      .cls-5 {
        fill: #015aa9;
      }

      .cls-6 {
        fill: #f9f9f9;
      }

      .cls-7 {
        fill: #818084;
      }

      .cls-8 {
        fill: #e4001b;
      }

      .cls-9 {
        fill: #848387;
      }

      .cls-10 {
        fill: #828184;
      }

      .cls-11 {
        fill: #c5c4c6;
      }

      .cls-12 {
        fill: #fefefe;
      }

      .cls-13 {
        fill: #fdfdfd;
      }
    </style>
  </defs>
  <g>
    <g>
      <path class="cls-8" d="M147.64.36c50.4-6.28,57.26,72.23,6.73,74.72-48.45,2.39-53.48-68.9-6.73-74.72Z"/>
      <path class="cls-2" d="M1.15,87.85c-1.42-1.84-1.28-3.65-.87-5.78.85-4.34,12.35-31.89,14.86-36.21,1.19-2.05,2.53-3.97,5.15-3.77l114.29,46.82c2.08,1.18,4.52,2.84,4.29,5.58l-15.75,39.35c-.89,2.33-2.46,2.39-4.69,2.32-39.39-15.16-78.32-31.96-117.28-48.3Z"/>
    </g>
    <g>
      <path class="cls-1" d="M30.12,192.87c-1.48-1.46-1.57-5.84-.77-7.8,7.56-14.75,12.15-31.89,19.37-46.64,2.55-5.21,3.03-8.35,9.7-6.39,9.7,2.85,41.86,15.89,50.17,20.85,1.83,1.09,3.1,2.11,3.88,4.17-1.97,6.95-21.27,56.89-24.25,57.89-2.13.71-4.82-.08-6.89-.81l-51.21-21.28Z"/>
      <path class="cls-1" d="M180.63,217.85c-3.18,1.68-5.94-.02-8.99-1.01-12.96-4.2-33.08-12.58-45.41-18.58-4.27-2.08-7.28-2.2-5.89-8.16,4.2-6.58,20.14-52.81,23.54-54.52,2.08-1.05,3.95-.49,6.03,0,9.73,2.29,36.77,14.48,46.66,19.34,2.1,1.04,6.5,2.63,7.17,4.88,1.6,5.32-20.36,49.68-23.1,58.04Z"/>
    </g>
  </g>
  <g>
    <path class="cls-1" d="M244.17,134.8c-2.27-2.98,1.92-13.78,4.72-15.25,2.54-1.33,7.45,2.65,10.44,3.61,11.17,3.58,27.79,3.22,31.77-10.33,7.75-26.38-22.42-25.93-35.21-39.23-18.87-19.62-8.34-54.63,17.96-61.02,9.45-2.3,31.89-1.34,38.47,6.59,3.41,4.11-1.41,13.99-7.68,12.74-7.17-1.43-13.89-6.34-22.56-4.13-11.67,2.98-15.79,16.27-10.95,26.59,7.38,15.73,41.57,13.55,45.5,42.5,5.31,39.05-32.92,54.25-65.01,42.01-1.51-.58-6.69-3.09-7.44-4.07Z"/>
    <path class="cls-1" d="M649.89,56.1v85h-22V46.6c0-3.37,25.79-7.31,29.46-7.54,3.18-.2,15.73-.53,17.88.2,4.74,1.62.84,14.82-2.34,16.39-.77.38-10.19-1.83-13.53-1.59-3.53.25-6.07,1.78-9.46,2.04Z"/>
    <path class="cls-5" d="M720.89,31.09c1.63-3.22,7.49-18.32,9.25-19.74,2.53-2.05,15.82-3.76,16.75.28.29,1.26-14.02,15.65-15.43,18.54-3.04,1.84-7.1.63-10.57.92Z"/>
    <g>
      <path class="cls-1" d="M454.89,43.1c42.15-13.89,62.76,18.83,57.88,57.38-5.38,42.46-46.37,50.77-80.71,35.46l-.14-131.31c1.43-7.51,22.97-4.3,22.97-1.03v39.5Z"/>
      <path class="cls-12" d="M454.89,127.1V55.1c24.86-8.16,34.71,6.71,36.05,29.45,1.44,24.49-5.29,51.7-36.05,42.55Z"/>
    </g>
    <g>
      <path class="cls-1" d="M604.77,135.98c-5.18,1.23-10.44,3.81-15.66,4.84-23.58,4.65-61.29,2.76-61.31-29.22-.02-28.19,33.9-33.88,55.51-36.39,3.72-20.73-12.05-23.86-28.65-20.84-3.3.6-15.99,5.46-16.86,5.28-3.93-.82-7.79-9.74-4.47-12.61,2.63-2.27,16.38-5.94,20.35-6.65,23.23-4.12,48.7.43,51.19,28.22,1.92,21.44-1.3,45.64-.1,67.37Z"/>
      <path class="cls-12" d="M583.89,86.1v41c-12.57,5.01-32.37,4.38-34.05-12.45-2.31-23.06,15.6-26.24,34.05-28.55Z"/>
    </g>
    <g>
      <path class="cls-1" d="M737.75,74.95c2.75-23.52-17.52-23.93-34.87-19.36-7.07,1.86-11.63,8.02-15.49-.48-4.43-9.76,5.66-11.2,13.72-13.29,26.32-6.83,55.06-3.45,57.77,28.8,1.67,19.91-1.26,41.89.07,62.04-.32,4.44-11.65,7.28-15.83,8.17-22.08,4.71-59.09,3.04-61.2-26.24-2.24-31.12,32.38-36.59,55.84-39.63Z"/>
      <path class="cls-12" d="M737.89,86.1v41c-15.8,5.85-35.36,3.45-34.89-17.4.42-18.71,20.11-22.03,34.89-23.6Z"/>
    </g>
    <g>
      <path class="cls-1" d="M388.74,74.96c1.85-23.56-17.07-24.06-34.86-19.37-7.12,1.88-13.57,8.74-16.53-2.47-1.84-6.96,3.79-7.81,9.33-9.74,16.92-5.89,46.33-8.07,57.46,8.96,11.65,17.84,2.98,58.99,5.81,80.3-.56,4.75-11.53,7.01-16.04,7.96-21.01,4.41-57.69,3.74-60.9-24.12-3.76-32.64,31.15-38.44,55.75-41.53Z"/>
      <path class="cls-12" d="M388.89,86.1v41c-15.13,5.7-35.08,3.69-35.08-16.5,0-19.52,19.69-22.88,35.08-24.5Z"/>
    </g>
  </g>
  <g>
    <path class="cls-7" d="M650.89,172.1c3.04.33,7.07-1,9.49,1.01l15.51,24.99v-26h9v45l-8.8-.21-16.2-26.79v27h-9v-45Z"/>
    <path class="cls-7" d="M549.89,217.1c-1.78.58-5.81-.41-8.01,0v-45.01c2.37.26,5.26-.43,7.52,0,4.08.77,13.13,22.4,17.49,26.01v-26h9v45c-2.25-.43-7.15.75-8.8-.21-1.33-.77-13.05-23.24-15.2-26.79l-1.02.15c-.28,9.04-.61,17.99-.98,26.85Z"/>
    <polygon class="cls-7" points="606.89 172.1 606.89 179.1 594.88 179.09 594.88 191.1 605.89 191.09 605.89 198.1 594.89 198.1 594.89 217.1 583.88 217.1 583.89 172.1 606.89 172.1"/>
    <polygon class="cls-7" points="257.89 172.1 257.89 192.1 274.89 192.1 274.89 172.1 280.89 172.1 280.89 217.1 274.89 217.1 274.89 196.1 257.89 196.1 257.89 217.1 251.89 217.1 251.89 172.1 257.89 172.1"/>
    <polygon class="cls-7" points="716.89 172.1 716.89 179.1 709.89 179.1 709.89 217.1 698.89 217.1 698.89 179.1 690.88 179.1 690.89 172.1 716.89 172.1"/>
    <polygon class="cls-7" points="753.89 172.1 753.89 210.1 764.89 210.09 764.89 217.1 742.89 217.1 742.89 172.1 753.89 172.1"/>
    <rect class="cls-4" x="521.89" y="172.1" width="11" height="45"/>
    <rect class="cls-7" x="723.89" y="172.1" width="10" height="45"/>
    <path class="cls-7" d="M348.89,173.1c-.78,8.08-1.44,3.39-6.5,2.95-5.74-.51-9.3,1.34-9.36,7.54-.1,9.42,17.88,7.61,17.95,21,.05,10.62-9.05,14.77-18.53,13.45-.76-.11-5.36-1.76-5.53-2-.3-.42.75-3.85,1.63-4.03,3.92-.79,15.74,5.08,16.34-6.49.46-8.85-12.09-8.93-15.84-15.07-8.08-13.24,7.94-22.34,19.85-17.34Z"/>
    <path class="cls-9" d="M431.89,172.1c2.98,6.44-8,3.36-8,4v41h-7v-41c0-.74-12.17,2.58-9-4h24Z"/>
    <path class="cls-3" d="M480.89,172.1v41h14c.2,0,.2,4,0,4h-20v-45h6Z"/>
    <rect class="cls-3" x="394.89" y="172.1" width="6" height="45"/>
    <path class="cls-11" d="M551.89,190.1c-2.62,7.8.05,17.56-.97,25.55-.13,1.01-.01,1.12-1.03,1.45v-29c1.16.03,1.52,1.2,2,2Z"/>
    <g>
      <path class="cls-7" d="M453.79,172.2l14.1,44.89c-1.39-.26-5.2.5-5.9-.1-.47-.41-2.25-10.31-3.58-11.91-1.2-1.45-14.08-1.51-15.56-.53-1.65,1.1-3.52,11.97-4.06,12.44-.7.6-4.5-.16-5.9.1l14.88-44.4,6.01-.49Z"/>
      <path class="cls-13" d="M456.88,200.09h-12.99s6.01-20.99,6.01-20.99c1.35-.29,1.12,1.04,1.46,2,2.18,6.17,3.53,12.76,5.52,18.99Z"/>
    </g>
    <g>
      <path class="cls-10" d="M365.89,199.1v17.5c0,1.53-4.57,1.76-6,1.5v-43.5c0-1.66,7.57-2.72,9.16-2.83,25.81-1.7,21.28,32.2-3.16,27.33Z"/>
      <path class="cls-12" d="M365.89,195.1v-19c0-1.22,10.66-1.68,13.23,3.26,5.26,10.12-2.55,18.09-13.23,15.74Z"/>
    </g>
    <g>
      <path class="cls-7" d="M631.79,172.2l14.09,44.89c-2.01-.39-10.07.62-10.9-.1-.55-.48-1.55-8.64-2.71-8.96-3.1.63-12.3-1.11-13.91,1.04-3.26,4.34,1.78,10.16-11.47,8.02l13.88-44.4,11.01-.49Z"/>
      <path class="cls-6" d="M626.88,184.09l4,18h-10c-.6-.6,3.39-14.53,3.97-16.53.43-1.46-.57-1.74,2.02-1.46Z"/>
    </g>
    <g>
      <path class="cls-7" d="M303.68,171.31c22.58-1.75,23.35,46.39,1.71,46.87-9.51.21-14.64-6.08-16.24-14.83-2.1-11.51-.48-30.87,14.53-32.03Z"/>
      <path class="cls-12" d="M301.6,176.31c18.11-4.11,16.06,34.78,5.76,36.77-2.49.48-6.44.16-8.44-1.52-6.03-5.08-6.43-33.19,2.68-35.25Z"/>
    </g>
  </g>
</svg>